<svg width="24" height="24" xmlns="http://www.w3.org/2000/svg" fill-rule="evenodd" clip-rule="evenodd"><path d="M0 23h24v-22h-24v22zm17.675-1c.648-2.423.863-6.49-2.151-8.12-2.613-1.414-3.078-3.458-3.452-5.1-.439-1.929-.729-3.204-4.387-3.544-2.951-.272-4.711-.535-6.685-1.978v18.742h16.675zm4.325-5h-3.14c.293 1.335.248 2.756.048 4h3.092v-4zm-14.292-1.401l-2.401 1.536c-.316.203-.738-.005-.768-.382l-.56-7.077c-.033-.398.393-.671.743-.476l6.19 3.478c.329.185.342.652.025.856l-2.386 1.526.445.684c.389-.03.78.15 1.005.501l1.451 2.268c.367.575.109 1.233-.333 1.514-.443.285-1.15.239-1.515-.333l-1.451-2.267c-.233-.364-.223-.816-.01-1.161l-.435-.667zm14.292-3.599h-4v2.854c.23.361.418.746.567 1.146h3.433v-4zm-13.995 2.223l1.69-1.082-4.646-2.61.421 5.313 1.693-1.082-.318-.488c-.151-.231-.085-.541.146-.691.232-.151.541-.086.692.146l.322.494zm8.995-2.223h-2.366c.895.9 1.487.925 2.366 1.69v-1.69zm-2-5h-2.386c.478 1.231.512 2.688 1.259 4h1.127v-4zm1 4h6v-4h-6v4zm1-8h-8v1.409c1.602.307 2.506.874 3.063 1.591h4.937v-3zm1 3h4v-3h-4v3zm-10-3h-5.548c1.873 1.037 3.739 1.068 5.548 1.262v-1.262z"/></svg>