<svg width="24" height="24" xmlns="http://www.w3.org/2000/svg" fill-rule="evenodd" clip-rule="evenodd"><path d="M17.007 17.996c1.657 0 3.001 1.346 3.001 3.002 0 1.656-1.344 3.002-3.001 3.002h-14.005c-1.657 0-3.002-1.346-3.002-3.002 0-1.65 1.335-2.99 2.982-3.002h.02-1.51c-.808 0-1.492-.572-1.492-1.434v-6.062c0-.817.694-1.509 1.515-1.509h3.487v-2.408c0-.863.694-1.594 1.517-1.594h4.038c.888-.891 4.138-4.331 4.138-4.331.404-.428.959-.658 1.498-.658.295 0 .586.069.847.214 1.102.61 6.207 3.574 6.207 3.574.753.438.753 1.144.753 1.443 0 .201 0 .205-.728 3.672.223.525.725 1.425.725 2.457 0 2.303-2.303 3.19-3.722 2.87-.724-.163-1.688-.386-2.46-.566l.569 2.065c.358 1.316-.513 2.267-1.555 2.267h.178zm0 4.003h.007c.549-.004.994-.45.994-1.001 0-.552-.449-1-1.001-1h-14.005c-.553 0-1.001.448-1.001 1 0 .553.448 1.001 1.001 1.001h14.005zm-12.255-1.751c-.414 0-.75.336-.75.75s.336.751.75.751.751-.337.751-.751-.337-.75-.751-.75zm7.003 0c-.415 0-.75.336-.75.75s.335.751.75.751c.414 0 .75-.337.75-.751s-.336-.75-.75-.75zm-3.501 0c-.414 0-.751.336-.751.75s.337.751.751.751.75-.337.75-.751-.336-.75-.75-.75zm7.002 0c-.414 0-.75.336-.75.75s.336.751.75.751c.415 0 .751-.337.751-.751s-.336-.75-.751-.75zm-13.255-9.255v5.002h14.376l-2.05-7.465c-.055-.201-.047-.414.026-.61l1.198-3.267c.253-.686.965-.733 1.335-.574l3.052 1.313c.396.17.639.577.601 1.007l-.201 2.272c-.015.171-.074.335-.171.476l-1.774 2.597c.745.173 1.64.381 2.323.534l.205.022c.023 0 1.471-.037.957-1.559-.304-.881-.743-1.403-.626-1.955.403-1.923.628-2.995.713-3.427 0 0-4.678-2.718-5.808-3.346 0 0-3.665 3.89-4.489 4.693-.186.183-.437.284-.699.284h-3.966v3.002c0 .554-.449 1.001-1 1.001h-4.002zm1.001 4.002h4.001v-1.001h-4.001v1.001zm0-2.001h4.001v-1h-4.001v1zm11.531 0h-6.529v-5.003h5.195l1.334 5.003zm-4.529-3.002v1.001h1.925l-.267-1.001h-1.658zm6.337-1.684l.567 2.061 1.461-2.136.114-1.289-1.417-.61-.725 1.974z"/></svg>