<svg width="24" height="24" xmlns="http://www.w3.org/2000/svg" fill-rule="evenodd" clip-rule="evenodd"><path d="M12 2h9l3 3v2h-5v5h1v3.396c-1.66.085-2.782.652-3 1.604-.131.574.145 1.553 1.12 1.699.665.1 1.325-.24 1.657-.825.335-.661 1.201-.158.932.45-.429 1.023-1.526 1.676-2.709 1.676-1.656 0-3-1.344-3-3 0-1.305.835-2.417 2-2.829v-2.171h1v-5h-6v17h-6v-17h-1v2h-5v-7h6v-2h6v2zm-2 18.052l-2 .952v.996h2v-1.948zm-2-1.821v1.773l2-.952v-1.774l-2 .953zm0-2.859v1.859l2-.953v-1.858l-2 .952zm0-2.785v1.785l2-.952v-1.785l-2 .952zm0-2.768v1.768l2-.952v-1.768l-2 .952zm2-2.819h-2v1.819l2-.952v-.867zm10.017-3h-18.017v3h1v-2h18l-.983-1zm-10.017-3h-2v1h2v-1z"/></svg>