<svg width="24" height="24" xmlns="http://www.w3.org/2000/svg" fill-rule="evenodd" clip-rule="evenodd"><path d="M24 24h-11v-6h4v-4h7v10zm-12-22h9l3 3v2h-3v2h3v3h-7v-3h3v-2h-8v17h-6v-17h-1v2h-5v-7h6v-2h6v2zm5 18h-2v2h2v-2zm5 0h-3v2h3v-2zm-12 .052l-2 .952v.996h2v-1.948zm-2-1.821v1.773l2-.952v-1.774l-2 .953zm14-2.231h-3v2h3v-2zm-14-.628v1.859l2-.953v-1.858l-2 .952zm0-2.785v1.785l2-.952v-1.785l-2 .952zm0-2.768v1.768l2-.952v-1.768l-2 .952zm2-2.819h-2v1.819l2-.952v-.867zm10.017-3h-18.017v3h1v-2h18l-.983-1zm-10.017-3h-2v1h2v-1z"/></svg>