<svg width="24" height="24" xmlns="http://www.w3.org/2000/svg" fill-rule="evenodd" clip-rule="evenodd"><path d="M7.163 14.762l-.317-.487c-.362-.555.477-1.1.838-.546l.321.494 1.691-1.082-4.646-2.61.421 5.313 1.692-1.082zm3.956 5.266c-.572.367-1.231.11-1.515-.333l-1.45-2.268c-.233-.363-.214-.807-.005-1.152l-.44-.675-2.401 1.535c-.316.203-.738-.005-.769-.382l-.56-7.077c-.032-.396.392-.671.744-.476l6.19 3.478c.328.184.342.653.024.857l-2.386 1.526.456.698c.385-.025.772.139.994.486l1.451 2.268c.367.573.108 1.232-.333 1.515zm4.406-6.148c-2.613-1.414-3.078-3.458-3.452-5.1-.439-1.929-.729-3.204-4.388-3.544-2.95-.272-4.71-.535-6.685-1.977v18.741h16.676c.648-2.423.862-6.491-2.151-8.12zm1.475-1.88h7v5h-5.142c.072.33.122.664.155 1h.987v5h-20v-22h7v3.168l1 .098v-3.266h7.5v4h-4.683c.547.281.947.618 1.243 1h7.94v5h-6.123c.197.346.446.681.764 1h1.359v1c.378.205.703.448 1 .707v-1.707zm4-1h3v-5h-3v5zm-4-6h7v-4h-7v4zm4 13h3v5h-3v-5z"/></svg>