<svg id="Layer_1" data-name="Layer 1" xmlns="http://www.w3.org/2000/svg" viewBox="0 0 754.6 450.62"><defs><style>.cls-1{fill:#fae451;}.cls-2{fill:#fad724;}.cls-3{fill:#fff1ab;}.cls-4{fill:#ffd402;}.cls-5{fill:#1d1d1b;}</style></defs><title>logo</title><rect class="cls-1" x="450.02" width="71.9" height="266.74"/><rect class="cls-2" x="516.21" y="28.66" width="113.68" height="238.08"/><rect class="cls-3" x="535.61" y="139.3" width="164.06" height="127.44"/><rect class="cls-1" x="424.94" y="105.83" width="71.9" height="160.91"/><rect class="cls-4" x="396.08" y="186.28" width="53.19" height="80.46"/><path class="cls-5" d="M126.55,415.33q42.15-.6,42.75-30.14.3-24.19-28.2-29.09-13.07-1.78-28.65-4Q84.54,347.49,70,331.45,55,315,55,291.37,55,263,73.85,245.65q18.25-17.22,51.81-17.52,40.38.9,70.22,22.42l-18.26,27A99.28,99.28,0,0,0,124,260.94q-15.15,0-25.24,7.57Q88.25,276.39,88,292q0,9.34,7.28,16.92t23.3,10.69q8.91,1.49,24.35,3.41,30.44,4.15,45,21.82a61.38,61.38,0,0,1,14.4,40.38q-1.63,62.06-76,62.94-48.09,0-82.68-29.69L65.09,393.8Q90.92,415,126.55,415.33Z" transform="translate(-43.57 -186.01)"/><path class="cls-5" d="M355.31,351.79H269.65v94.56h-32.8V229.91h32.8v92.78h85.66V229.91h32.81V446.35H355.31Z" transform="translate(-43.57 -186.01)"/><path class="cls-5" d="M102.36,544q-2.65,11.22-10.11,17.24a28.75,28.75,0,0,1-18.17,6q-9.49-.23-15.85-4.64a26.9,26.9,0,0,1-9.39-9.83c-.59-1.22-1.13-2.38-1.6-3.48A22.45,22.45,0,0,1,46.13,545q-.83-4.86-.83-18.67,0-14,.83-18.78a22.13,22.13,0,0,1,2.71-7.68,27.78,27.78,0,0,1,9.39-9.94q6.35-4.42,15.85-4.53,11.65.11,19,6.9a30.39,30.39,0,0,1,9.28,17H89.44A17.71,17.71,0,0,0,84,500.93a15.88,15.88,0,0,0-9.94-3.37,16.79,16.79,0,0,0-7.4,1.71,15.3,15.3,0,0,0-5.08,4.14,13.23,13.23,0,0,0-3.15,6.69q-.89,4.3-.88,16.18t.88,16.07a13.33,13.33,0,0,0,3.15,6.8,14.23,14.23,0,0,0,5.08,4,14.27,14.27,0,0,0,7.4,1.82q10.28,0,15.36-11Z" transform="translate(-43.57 -186.01)"/><path class="cls-5" d="M108.22,526.28q0-14,.83-18.78a22.14,22.14,0,0,1,2.7-7.68,27.78,27.78,0,0,1,9.39-9.94q6.36-4.42,15.86-4.53,9.6.11,16,4.53a27,27,0,0,1,9.17,9.94A18.29,18.29,0,0,1,165,507.5q.72,4.75.72,18.78,0,13.82-.72,18.67a18.45,18.45,0,0,1-2.82,7.79,26.11,26.11,0,0,1-9.17,9.83q-6.4,4.42-16,4.64-9.51-.23-15.86-4.64a26.9,26.9,0,0,1-9.39-9.83c-.59-1.22-1.12-2.38-1.6-3.48a22.52,22.52,0,0,1-1.1-4.31Q108.21,540.09,108.22,526.28Zm12.26,0q0,11.88.88,16.07a13.49,13.49,0,0,0,3.15,6.8A16.55,16.55,0,0,0,137,555a15,15,0,0,0,7.56-1.82,13.36,13.36,0,0,0,4.86-4,14.11,14.11,0,0,0,3.26-6.8q.84-4.19.83-16.07t-.83-16.18a14,14,0,0,0-3.26-6.69,14.35,14.35,0,0,0-4.86-4.14,17.66,17.66,0,0,0-7.56-1.71,16.83,16.83,0,0,0-7.41,1.71,15.4,15.4,0,0,0-5.08,4.14,13.39,13.39,0,0,0-3.15,6.69Q120.48,514.41,120.48,526.28Z" transform="translate(-43.57 -186.01)"/><path class="cls-5" d="M180,486h11.49l36.46,57.23h.22V486h12.2v80.54H228.8l-36.4-57.23h-.22v57.23H180Z" transform="translate(-43.57 -186.01)"/><path class="cls-5" d="M281.22,555q15.69-.21,15.91-11.21.11-9-10.5-10.83-4.86-.66-10.66-1.49-10.38-1.71-15.8-7.68a21.32,21.32,0,0,1-5.57-14.91q0-10.54,7-17,6.79-6.4,19.28-6.52,15,.33,26.13,8.34l-6.8,10.05a36.92,36.92,0,0,0-19.94-6.18,15.24,15.24,0,0,0-9.39,2.81q-3.93,2.94-4,8.73a8.9,8.9,0,0,0,2.7,6.3q2.71,2.86,8.68,4c2.21.36,5.23.79,9.06,1.27q11.31,1.54,16.73,8.12a22.82,22.82,0,0,1,5.36,15q-.61,23.09-28.28,23.42-17.89,0-30.77-11.05l8-9.17A35.33,35.33,0,0,0,281.22,555Z" transform="translate(-43.57 -186.01)"/><path class="cls-5" d="M335.9,496.89h-22V486h56.35v10.88h-22v69.66H335.9Z" transform="translate(-43.57 -186.01)"/><path class="cls-5" d="M378.82,486h31.43q10,0,16.41,5.31,7.68,6,8,17.17-.23,16.41-15.58,22.32l18.67,35.74H423.23l-16.62-34.41H391v34.41H378.82ZM391,521.31h18.45q6.86-.1,10.27-4a12.41,12.41,0,0,0,3.37-8.84q-.11-6.28-4-9.11-3.09-2.49-8.95-2.49H391Z" transform="translate(-43.57 -186.01)"/><path class="cls-5" d="M446.32,486h12.21v51.93q.11,8.22,4.75,12.53A15.76,15.76,0,0,0,474.93,555a16.16,16.16,0,0,0,11.77-4.53q4.53-4.31,4.64-12.53V486h12.21v53.25q-.23,12.71-8.23,20.16-8.07,7.68-20.39,7.79-12.09-.11-20.21-7.79-8.3-7.45-8.4-20.16Z" transform="translate(-43.57 -186.01)"/><path class="cls-5" d="M573.37,544q-2.65,11.22-10.11,17.24a28.79,28.79,0,0,1-18.17,6q-9.51-.23-15.86-4.64a26.9,26.9,0,0,1-9.39-9.83c-.59-1.22-1.12-2.38-1.6-3.48a22.52,22.52,0,0,1-1.1-4.31q-.84-4.86-.83-18.67,0-14,.83-18.78a22.14,22.14,0,0,1,2.7-7.68,27.78,27.78,0,0,1,9.39-9.94q6.36-4.42,15.86-4.53,11.64.11,19,6.9a30.45,30.45,0,0,1,9.28,17H560.44a17.69,17.69,0,0,0-5.41-8.28,15.9,15.9,0,0,0-9.94-3.37,16.83,16.83,0,0,0-7.41,1.71,15.3,15.3,0,0,0-5.08,4.14,13.39,13.39,0,0,0-3.15,6.69q-.88,4.3-.88,16.18t.88,16.07a13.49,13.49,0,0,0,3.15,6.8A16.55,16.55,0,0,0,545.09,555q10.26,0,15.35-11Z" transform="translate(-43.57 -186.01)"/><path class="cls-5" d="M595.63,496.89h-22V486h56.34v10.88h-22v69.66H595.63Z" transform="translate(-43.57 -186.01)"/><path class="cls-5" d="M638.55,486h12.2v80.54h-12.2Z" transform="translate(-43.57 -186.01)"/><path class="cls-5" d="M665,526.28q0-14,.83-18.78a22.13,22.13,0,0,1,2.71-7.68,27.78,27.78,0,0,1,9.39-9.94q6.35-4.42,15.85-4.53,9.62.11,16,4.53a27.13,27.13,0,0,1,9.17,9.94,18.43,18.43,0,0,1,2.81,7.68q.72,4.75.72,18.78,0,13.82-.72,18.67a18.58,18.58,0,0,1-2.81,7.79,26.27,26.27,0,0,1-9.17,9.83q-6.42,4.42-16,4.64-9.51-.23-15.85-4.64a26.9,26.9,0,0,1-9.39-9.83c-.59-1.22-1.13-2.38-1.61-3.48a22.52,22.52,0,0,1-1.1-4.31Q665,540.09,665,526.28Zm12.26,0q0,11.88.89,16.07a13.4,13.4,0,0,0,3.14,6.8A16.6,16.6,0,0,0,693.73,555a15,15,0,0,0,7.57-1.82,13.52,13.52,0,0,0,4.86-4,14.2,14.2,0,0,0,3.26-6.8q.83-4.19.82-16.07t-.82-16.18a14.12,14.12,0,0,0-3.26-6.69,14.54,14.54,0,0,0-4.86-4.14,17.7,17.7,0,0,0-7.57-1.71,16.79,16.79,0,0,0-7.4,1.71,15.34,15.34,0,0,0-5.09,4.14,13.3,13.3,0,0,0-3.14,6.69Q677.21,514.41,677.21,526.28Z" transform="translate(-43.57 -186.01)"/><path class="cls-5" d="M736.7,486h11.49l36.46,57.23h.22V486h12.21v80.54H785.53l-36.4-57.23h-.22v57.23H736.7Z" transform="translate(-43.57 -186.01)"/><path d="M67.67,621.75v2.36a8.13,8.13,0,0,1-.71,3.36A9.14,9.14,0,0,1,65,630.29a9.27,9.27,0,0,1-2.91,2,8.8,8.8,0,0,1-3.59.73,13.37,13.37,0,0,1-3.34-.43A8.13,8.13,0,0,1,52.11,631a8.27,8.27,0,0,1-2.23-2.76A9.44,9.44,0,0,1,49,624V602.89a8.9,8.9,0,0,1,.68-3.49,8.3,8.3,0,0,1,1.93-2.8,8.9,8.9,0,0,1,3-1.85,10.37,10.37,0,0,1,3.81-.67A8.74,8.74,0,0,1,67,599.53a9.5,9.5,0,0,1,.71,3.68v2.15H61.9v-1.83a4.3,4.3,0,0,0-1-2.79,3.17,3.17,0,0,0-2.6-1.18c-1.44,0-2.39.42-2.86,1.26a6.5,6.5,0,0,0-.71,3.2v19.56a4.85,4.85,0,0,0,.77,2.79,3.07,3.07,0,0,0,2.74,1.13,4.28,4.28,0,0,0,1.22-.19,3.57,3.57,0,0,0,1.21-.62,3.27,3.27,0,0,0,.85-1.18,4.51,4.51,0,0,0,.34-1.88v-1.88Z" transform="translate(-43.57 -186.01)"/><path d="M91,594.4v29.66a8.48,8.48,0,0,1-.71,3.47,8.9,8.9,0,0,1-2,2.82,9.49,9.49,0,0,1-3,1.93,9.34,9.34,0,0,1-3.62.7,9.12,9.12,0,0,1-3.59-.7,9.51,9.51,0,0,1-3-1.93,9.32,9.32,0,0,1-2-2.82,8.18,8.18,0,0,1-.74-3.47V594.4h5.77v29.12a4,4,0,0,0,1,3,3.82,3.82,0,0,0,5.09,0,4,4,0,0,0,1-3V594.4Z" transform="translate(-43.57 -186.01)"/><path d="M96.46,632.66V594.4h9.28q10.17,0,10.18,11.23a13.46,13.46,0,0,1-1.11,5.75,8.22,8.22,0,0,1-3.87,3.81l6.22,17.47h-6.11l-5.37-16.34h-3.45v16.34Zm5.77-33.1v11.93h3.28a6,6,0,0,0,2.43-.41,3.31,3.31,0,0,0,1.42-1.15,5.22,5.22,0,0,0,.62-1.86,19.21,19.21,0,0,0,0-5.1,5.1,5.1,0,0,0-.68-1.91c-.72-1-2.07-1.5-4.07-1.5Z" transform="translate(-43.57 -186.01)"/><path d="M120.55,632.66V594.4H129a12.58,12.58,0,0,1,4.73.8,9,9,0,0,1,3.19,2.15,8,8,0,0,1,1.78,3.09,12.27,12.27,0,0,1,.54,3.63v1.4a11.61,11.61,0,0,1-.25,2.63,6.13,6.13,0,0,1-.77,1.88,7.83,7.83,0,0,1-2.94,2.58,6.14,6.14,0,0,1,3,2.69,10.19,10.19,0,0,1,1,4.83v2.15q0,5.06-2.57,7.74t-8.23,2.69Zm5.77-33.1v10.53h2.61c1.92,0,3.21-.46,3.87-1.37a6.82,6.82,0,0,0,1-4,5.85,5.85,0,0,0-1.1-3.86q-1.11-1.29-4-1.29Zm0,15.36v12.26h2.49a6.42,6.42,0,0,0,2.75-.49,3.45,3.45,0,0,0,1.5-1.34,5,5,0,0,0,.62-2c.07-.79.11-1.65.11-2.58a16.88,16.88,0,0,0-.17-2.53,4.4,4.4,0,0,0-.68-1.82,3.25,3.25,0,0,0-1.52-1.11,7.79,7.79,0,0,0-2.55-.35Z" transform="translate(-43.57 -186.01)"/><path d="M163.32,605.41h-5.77v-1.23a5.56,5.56,0,0,0-.94-3.25,3.51,3.51,0,0,0-3.14-1.37,3.74,3.74,0,0,0-1.92.43,3.62,3.62,0,0,0-1.19,1.07,4.44,4.44,0,0,0-.62,1.59,10.1,10.1,0,0,0-.17,1.85,16.28,16.28,0,0,0,.09,1.88,3.25,3.25,0,0,0,.42,1.34,3.12,3.12,0,0,0,1,1,9.91,9.91,0,0,0,1.78.86l4.41,1.66a11.14,11.14,0,0,1,3.11,1.64,7,7,0,0,1,1.87,2.18,9.58,9.58,0,0,1,.85,2.92,27.77,27.77,0,0,1,.23,3.74,18.76,18.76,0,0,1-.51,4.49,9.32,9.32,0,0,1-1.64,3.52,8.14,8.14,0,0,1-3.11,2.36,11.57,11.57,0,0,1-4.7.86,10.64,10.64,0,0,1-3.9-.7,9.19,9.19,0,0,1-3.11-1.93,9.4,9.4,0,0,1-2.07-2.88,8.32,8.32,0,0,1-.76-3.57v-2h5.77v1.72a4.34,4.34,0,0,0,.93,2.71,3.72,3.72,0,0,0,3.14,1.21,5.44,5.44,0,0,0,2.29-.4,3,3,0,0,0,1.27-1.16,4,4,0,0,0,.54-1.8q.09-1,.09-2.34a20.83,20.83,0,0,0-.12-2.47,4,4,0,0,0-.45-1.56,3,3,0,0,0-1-1,14.35,14.35,0,0,0-1.72-.81l-4.13-1.61q-3.74-1.46-5-3.84a12.81,12.81,0,0,1-1.27-6,13.39,13.39,0,0,1,.62-4.08,9.2,9.2,0,0,1,1.87-3.33,8.42,8.42,0,0,1,3-2.23,10.44,10.44,0,0,1,4.38-.83,10,10,0,0,1,3.93.75,9.91,9.91,0,0,1,3.08,2,8.09,8.09,0,0,1,2.61,5.91Z" transform="translate(-43.57 -186.01)"/><path d="M167.27,636.63v-9.45H173v5.48Z" transform="translate(-43.57 -186.01)"/><path d="M188.65,632.66V594.4h8.66a13.56,13.56,0,0,1,4.18.59,8,8,0,0,1,3.28,2.09,8.19,8.19,0,0,1,2,3.52,20.9,20.9,0,0,1,.57,5.46,25.3,25.3,0,0,1-.32,4.35,8.85,8.85,0,0,1-1.32,3.33,8.27,8.27,0,0,1-3.17,2.93,11.14,11.14,0,0,1-5.21,1.05h-2.94v14.94Zm5.77-33.1v13h2.77a6.22,6.22,0,0,0,2.72-.48,3.13,3.13,0,0,0,1.41-1.35,4.61,4.61,0,0,0,.54-2q.09-1.18.09-2.64t-.06-2.55a5.34,5.34,0,0,0-.51-2.12A3.07,3.07,0,0,0,200,600a5.65,5.65,0,0,0-2.6-.48Z" transform="translate(-43.57 -186.01)"/><path d="M207,632.66l9-38.26h4.81l9,38.26H224l-1.7-8.22h-7.86l-1.7,8.22Zm14.25-13.38-2.82-13.87h-.12l-2.82,13.87Z" transform="translate(-43.57 -186.01)"/><path d="M233.28,632.66v-33.1h-6.67V594.4h19.12v5.16h-6.68v33.1Z" transform="translate(-43.57 -186.01)"/><path d="M248.44,632.66V594.4h5.77v38.26Z" transform="translate(-43.57 -186.01)"/><path d="M259.47,603.43a9.32,9.32,0,0,1,.85-4.09,8.55,8.55,0,0,1,2.26-3,9.51,9.51,0,0,1,3.08-1.72,10.56,10.56,0,0,1,7,0,10.12,10.12,0,0,1,3.14,1.72,8.94,8.94,0,0,1,2.21,3,9.46,9.46,0,0,1,.84,4.09v20.2a9.38,9.38,0,0,1-.84,4.14,8.74,8.74,0,0,1-2.21,2.85,9.86,9.86,0,0,1-3.14,1.77,10.56,10.56,0,0,1-7,0,9.28,9.28,0,0,1-3.08-1.77,8.36,8.36,0,0,1-2.26-2.85,9.24,9.24,0,0,1-.85-4.14Zm5.77,20.2a3.56,3.56,0,0,0,1.16,2.93,4.48,4.48,0,0,0,5.49,0,3.56,3.56,0,0,0,1.16-2.93v-20.2a3.55,3.55,0,0,0-1.16-2.93,4.48,4.48,0,0,0-5.49,0,3.55,3.55,0,0,0-1.16,2.93Z" transform="translate(-43.57 -186.01)"/><path d="M302.57,605.41H296.8v-1.23a5.62,5.62,0,0,0-.93-3.25,3.51,3.51,0,0,0-3.14-1.37,3.74,3.74,0,0,0-1.92.43,3.52,3.52,0,0,0-1.19,1.07,4.44,4.44,0,0,0-.62,1.59,9.29,9.29,0,0,0-.17,1.85,16.57,16.57,0,0,0,.08,1.88,3.57,3.57,0,0,0,.42,1.34,3.12,3.12,0,0,0,1,1,10,10,0,0,0,1.79.86l4.41,1.66a11.14,11.14,0,0,1,3.11,1.64,7.29,7.29,0,0,1,1.87,2.18,9.86,9.86,0,0,1,.84,2.92,27.77,27.77,0,0,1,.23,3.74,18.76,18.76,0,0,1-.51,4.49,9.17,9.17,0,0,1-1.64,3.52,8.07,8.07,0,0,1-3.11,2.36,11.52,11.52,0,0,1-4.69.86,10.69,10.69,0,0,1-3.91-.7,9.19,9.19,0,0,1-5.17-4.81,8.32,8.32,0,0,1-.77-3.57v-2h5.77v1.72a4.29,4.29,0,0,0,.94,2.71,3.72,3.72,0,0,0,3.14,1.21,5.44,5.44,0,0,0,2.29-.4,3,3,0,0,0,1.27-1.16,4.14,4.14,0,0,0,.54-1.8c0-.7.08-1.48.08-2.34a23.58,23.58,0,0,0-.11-2.47,4.37,4.37,0,0,0-.45-1.56,3.23,3.23,0,0,0-1.05-1,13.87,13.87,0,0,0-1.73-.81l-4.13-1.61q-3.72-1.46-5-3.84a12.69,12.69,0,0,1-1.27-6,13.09,13.09,0,0,1,.62-4.08,9.06,9.06,0,0,1,1.87-3.33,8.47,8.47,0,0,1,3-2.23,10.52,10.52,0,0,1,4.39-.83,10,10,0,0,1,7,2.74,8.11,8.11,0,0,1,2.6,5.91Z" transform="translate(-43.57 -186.01)"/><path d="M306.53,636.63v-9.45h5.77v5.48Z" transform="translate(-43.57 -186.01)"/><path d="M327.91,632.66V594.4h8.54c3.32,0,5.83.86,7.55,2.58s2.57,4.15,2.57,7.31v17.89q0,5.37-2.74,7.92t-7.89,2.56Zm5.77-33.1V627.5h2.66a4.41,4.41,0,0,0,3.45-1.16,5.38,5.38,0,0,0,1-3.62V604.29a5.61,5.61,0,0,0-1-3.5c-.64-.82-1.81-1.23-3.5-1.23Z" transform="translate(-43.57 -186.01)"/><path d="M352,632.66V594.4h9.28q10.19,0,10.18,11.23a13.62,13.62,0,0,1-1.1,5.75,8.29,8.29,0,0,1-3.88,3.81l6.23,17.47H366.6l-5.38-16.34h-3.45v16.34Zm5.77-33.1v11.93h3.28a6.1,6.1,0,0,0,2.44-.41,3.28,3.28,0,0,0,1.41-1.15,5,5,0,0,0,.62-1.86,19.21,19.21,0,0,0,0-5.1,4.93,4.93,0,0,0-.68-1.91c-.71-1-2.07-1.5-4.07-1.5Z" transform="translate(-43.57 -186.01)"/><path d="M376.27,632.66V594.4H382v38.26Z" transform="translate(-43.57 -186.01)"/><path d="M407.21,594.4,399,632.66h-5.09l-8.2-38.26h6.11l4.58,26.7h.11l4.64-26.7Z" transform="translate(-43.57 -186.01)"/><path d="M410.66,632.66V594.4h17.19v5.16H416.43v11.23h9.95V616h-9.95v11.23h11.42v5.48Z" transform="translate(-43.57 -186.01)"/><path d="M461.51,594.4l-6,38.26h-5.43l-4.41-24.83h-.11l-4.36,24.83h-5.43l-6-38.26h6.1l2.89,24.29h.11l4.53-24.29h4.41l4.69,24.88h.12l2.77-24.88Z" transform="translate(-43.57 -186.01)"/><path d="M460.83,632.66l9-38.26h4.81l9,38.26h-5.77l-1.69-8.22h-7.87l-1.69,8.22Zm14.25-13.38-2.83-13.87h-.11l-2.83,13.87Z" transform="translate(-43.57 -186.01)"/><path d="M488.71,632.66V616.48l-7.92-22.08h6.11l4.64,15.21h.11l4.64-15.21h6.11l-7.92,22.08v16.18Z" transform="translate(-43.57 -186.01)"/><path d="M524,605.41h-5.77v-1.23a5.62,5.62,0,0,0-.93-3.25,3.51,3.51,0,0,0-3.14-1.37,3.74,3.74,0,0,0-1.92.43,3.62,3.62,0,0,0-1.19,1.07,4.44,4.44,0,0,0-.62,1.59,9.29,9.29,0,0,0-.17,1.85,16.57,16.57,0,0,0,.08,1.88,3.57,3.57,0,0,0,.42,1.34,3.06,3.06,0,0,0,1,1,9.58,9.58,0,0,0,1.78.86l4.41,1.66a11.14,11.14,0,0,1,3.11,1.64,7.29,7.29,0,0,1,1.87,2.18,9.86,9.86,0,0,1,.84,2.92,26.22,26.22,0,0,1,.23,3.74,18.76,18.76,0,0,1-.51,4.49,9.17,9.17,0,0,1-1.64,3.52,8.07,8.07,0,0,1-3.11,2.36A11.52,11.52,0,0,1,514,633a10.69,10.69,0,0,1-3.91-.7,9.19,9.19,0,0,1-5.17-4.81,8.32,8.32,0,0,1-.77-3.57v-2h5.77v1.72a4.29,4.29,0,0,0,.94,2.71A3.72,3.72,0,0,0,514,627.5a5.44,5.44,0,0,0,2.29-.4,3,3,0,0,0,1.27-1.16,4.14,4.14,0,0,0,.54-1.8c0-.7.08-1.48.08-2.34a23.58,23.58,0,0,0-.11-2.47,4.37,4.37,0,0,0-.45-1.56,3.23,3.23,0,0,0-1-1,13.87,13.87,0,0,0-1.73-.81l-4.13-1.61q-3.72-1.46-5-3.84a12.69,12.69,0,0,1-1.27-6,13.09,13.09,0,0,1,.62-4.08,9.06,9.06,0,0,1,1.87-3.33,8.47,8.47,0,0,1,3-2.23,10.5,10.5,0,0,1,4.38-.83,10,10,0,0,1,7,2.74,8.11,8.11,0,0,1,2.6,5.91Z" transform="translate(-43.57 -186.01)"/><path d="M556,632.66l-1.92-2.9a12.39,12.39,0,0,1-3.51,2.41,10.15,10.15,0,0,1-4.18.81,8.21,8.21,0,0,1-3.23-.65,7.74,7.74,0,0,1-2.66-1.82,8.06,8.06,0,0,1-1.78-2.77,10.47,10.47,0,0,1,.93-9.16,22,22,0,0,1,4-4.41,22.9,22.9,0,0,1-2.51-4.22,11,11,0,0,1-1-4.59,8.15,8.15,0,0,1,.51-2.87,6.94,6.94,0,0,1,1.47-2.4,7.1,7.1,0,0,1,2.43-1.55,9.09,9.09,0,0,1,3.45-.6,8.73,8.73,0,0,1,3.28.57,7.39,7.39,0,0,1,2.38,1.48,6.67,6.67,0,0,1,2,4.89,8.66,8.66,0,0,1-1.75,5.16,26.22,26.22,0,0,1-4.13,4.46,20.21,20.21,0,0,1,1.16,1.71c.4.65.84,1.33,1.33,2,.94,1.54,1.89,3,2.83,4.24l3.11-4,3.56,2.37-4.29,5.26,4.35,6.56Zm-12.84-8.82a5.1,5.1,0,0,0,1.22,3.42,3.87,3.87,0,0,0,3.08,1.42,4.46,4.46,0,0,0,2.49-.78,8.34,8.34,0,0,0,1.81-1.53L546.24,618a12.91,12.91,0,0,0-2.18,2.66A5.91,5.91,0,0,0,543.18,623.84Zm2-18.37a6.6,6.6,0,0,0,.62,2.66,18.22,18.22,0,0,0,1.58,2.87c.34-.32.72-.69,1.13-1.1a8.91,8.91,0,0,0,1.14-1.37,8.2,8.2,0,0,0,.85-1.64,5.4,5.4,0,0,0,.33-1.91,2.84,2.84,0,0,0-.73-1.88,2.76,2.76,0,0,0-4.13.14A3.46,3.46,0,0,0,545.22,605.47Z" transform="translate(-43.57 -186.01)"/><path d="M573.89,632.66l9-38.26h4.81l9,38.26h-5.77l-1.7-8.22h-7.86l-1.7,8.22Zm14.26-13.38-2.83-13.87h-.11l-2.83,13.87Z" transform="translate(-43.57 -186.01)"/><path d="M599.52,632.66V594.4h5.77v32.78h11.42v5.48Z" transform="translate(-43.57 -186.01)"/><path d="M620.05,632.66v-33.1h-6.68V594.4h19.12v5.16h-6.67v33.1Z" transform="translate(-43.57 -186.01)"/><path d="M635,632.66V594.4h17.19v5.16H640.81v11.23h10V616h-10v11.23h11.42v5.48Z" transform="translate(-43.57 -186.01)"/><path d="M656,632.66V594.4h9.28q10.18,0,10.18,11.23a13.62,13.62,0,0,1-1.1,5.75,8.31,8.31,0,0,1-3.87,3.81l6.22,17.47h-6.11l-5.38-16.34h-3.45v16.34Zm5.77-33.1v11.93H665a6.1,6.1,0,0,0,2.44-.41,3.28,3.28,0,0,0,1.41-1.15,5,5,0,0,0,.62-1.86,19.21,19.21,0,0,0,0-5.1,4.93,4.93,0,0,0-.68-1.91c-.71-1-2.07-1.5-4.07-1.5Z" transform="translate(-43.57 -186.01)"/><path d="M677.46,632.66l9-38.26h4.81l9,38.26h-5.77l-1.69-8.22h-7.87l-1.69,8.22Zm14.25-13.38-2.83-13.87h-.11l-2.83,13.87Z" transform="translate(-43.57 -186.01)"/><path d="M703.76,632.66v-33.1h-6.67V594.4H716.2v5.16h-6.67v33.1Z" transform="translate(-43.57 -186.01)"/><path d="M718.92,632.66V594.4h5.77v38.26Z" transform="translate(-43.57 -186.01)"/><path d="M730,603.43a9.32,9.32,0,0,1,.85-4.09,8.55,8.55,0,0,1,2.26-3,9.41,9.41,0,0,1,3.08-1.72,10.56,10.56,0,0,1,7,0,10.24,10.24,0,0,1,3.14,1.72,8.91,8.91,0,0,1,2.2,3,9.32,9.32,0,0,1,.85,4.09v20.2a9.24,9.24,0,0,1-.85,4.14,8.71,8.71,0,0,1-2.2,2.85,10,10,0,0,1-3.14,1.77,10.56,10.56,0,0,1-7,0,9.18,9.18,0,0,1-3.08-1.77,8.36,8.36,0,0,1-2.26-2.85,9.24,9.24,0,0,1-.85-4.14Zm5.77,20.2a3.53,3.53,0,0,0,1.16,2.93,4.46,4.46,0,0,0,5.48,0,3.53,3.53,0,0,0,1.16-2.93v-20.2a3.52,3.52,0,0,0-1.16-2.93,4.46,4.46,0,0,0-5.48,0,3.52,3.52,0,0,0-1.16,2.93Z" transform="translate(-43.57 -186.01)"/><path d="M754.16,632.66V594.4h5.54l8.71,23.05h.11V594.4h5.77v38.26h-5.43l-8.82-23h-.11v23Z" transform="translate(-43.57 -186.01)"/><path d="M798.16,605.41h-5.77v-1.23a5.62,5.62,0,0,0-.93-3.25,3.51,3.51,0,0,0-3.14-1.37,3.74,3.74,0,0,0-1.92.43,3.62,3.62,0,0,0-1.19,1.07,4.44,4.44,0,0,0-.62,1.59,9.29,9.29,0,0,0-.17,1.85c0,.75,0,1.38.08,1.88a3.41,3.41,0,0,0,.43,1.34,2.94,2.94,0,0,0,1,1,9.58,9.58,0,0,0,1.78.86l4.41,1.66a11.14,11.14,0,0,1,3.11,1.64,7.29,7.29,0,0,1,1.87,2.18,10.17,10.17,0,0,1,.85,2.92,27.89,27.89,0,0,1,.22,3.74,18.76,18.76,0,0,1-.51,4.49,9.17,9.17,0,0,1-1.64,3.52,8.07,8.07,0,0,1-3.11,2.36,11.52,11.52,0,0,1-4.69.86,10.69,10.69,0,0,1-3.91-.7,9.39,9.39,0,0,1-3.11-1.93,9.54,9.54,0,0,1-2.06-2.88,8.32,8.32,0,0,1-.76-3.57v-2h5.76v1.72a4.35,4.35,0,0,0,.94,2.71,3.72,3.72,0,0,0,3.14,1.21,5.44,5.44,0,0,0,2.29-.4,3,3,0,0,0,1.27-1.16,4.14,4.14,0,0,0,.54-1.8c.05-.7.08-1.48.08-2.34a23.58,23.58,0,0,0-.11-2.47,4.37,4.37,0,0,0-.45-1.56,3.23,3.23,0,0,0-1.05-1,14.35,14.35,0,0,0-1.72-.81l-4.13-1.61q-3.73-1.46-5-3.84a12.69,12.69,0,0,1-1.27-6,13.09,13.09,0,0,1,.62-4.08,9.06,9.06,0,0,1,1.87-3.33,8.47,8.47,0,0,1,3-2.23,10.52,10.52,0,0,1,4.39-.83,10,10,0,0,1,7,2.74,8.11,8.11,0,0,1,2.6,5.91Z" transform="translate(-43.57 -186.01)"/></svg>