<svg id="Layer_1" data-name="Layer 1" xmlns="http://www.w3.org/2000/svg" viewBox="0 0 753.51 381.2"><defs><style>.cls-1{fill:#fcf8cd;}.cls-2{fill:#fffad2;}.cls-3{fill:#f8f4bd;}.cls-4{fill:#fbfae4;}.cls-5{fill:#fff;}</style></defs><title>final-logo-shconstructionltd-white</title><rect class="cls-1" x="450.02" width="71.9" height="266.74"/><rect class="cls-2" x="516.21" y="28.66" width="113.68" height="238.08"/><rect class="cls-3" x="535.61" y="139.3" width="164.06" height="127.44"/><rect class="cls-4" x="424.94" y="105.83" width="71.9" height="160.91"/><rect class="cls-1" x="396.08" y="186.28" width="53.19" height="80.46"/><path class="cls-5" d="M126.55,415.33q42.15-.6,42.75-30.14.3-24.19-28.2-29.09-13.07-1.78-28.65-4Q84.54,347.49,70,331.45,55,315,55,291.37,55,263,73.85,245.65q18.25-17.22,51.81-17.52,40.38.9,70.22,22.42l-18.26,27A99.28,99.28,0,0,0,124,260.94q-15.15,0-25.24,7.57Q88.25,276.39,88,292q0,9.34,7.28,16.92t23.3,10.69q8.91,1.49,24.35,3.41,30.44,4.15,45,21.82a61.38,61.38,0,0,1,14.4,40.38q-1.63,62.06-76,62.94-48.09,0-82.68-29.69L65.09,393.8Q90.92,415,126.55,415.33Z" transform="translate(-43.57 -186.01)"/><path class="cls-5" d="M355.31,351.79H269.65v94.56h-32.8V229.91h32.8v92.78h85.66V229.91h32.81V446.35H355.31Z" transform="translate(-43.57 -186.01)"/><path class="cls-5" d="M102.36,544q-2.65,11.22-10.11,17.24a28.75,28.75,0,0,1-18.17,6q-9.49-.23-15.85-4.64a26.9,26.9,0,0,1-9.39-9.83c-.59-1.22-1.13-2.38-1.6-3.48A22.45,22.45,0,0,1,46.13,545q-.83-4.86-.83-18.67,0-14,.83-18.78a22.13,22.13,0,0,1,2.71-7.68,27.78,27.78,0,0,1,9.39-9.94q6.35-4.42,15.85-4.53,11.65.11,19,6.9a30.39,30.39,0,0,1,9.28,17H89.44A17.71,17.71,0,0,0,84,500.93a15.88,15.88,0,0,0-9.94-3.37,16.79,16.79,0,0,0-7.4,1.71,15.3,15.3,0,0,0-5.08,4.14,13.23,13.23,0,0,0-3.15,6.69q-.89,4.3-.88,16.18t.88,16.07a13.33,13.33,0,0,0,3.15,6.8,14.23,14.23,0,0,0,5.08,4,14.27,14.27,0,0,0,7.4,1.82q10.28,0,15.36-11Z" transform="translate(-43.57 -186.01)"/><path class="cls-5" d="M108.22,526.28q0-14,.83-18.78a22.14,22.14,0,0,1,2.7-7.68,27.78,27.78,0,0,1,9.39-9.94q6.36-4.42,15.86-4.53,9.6.11,16,4.53a27,27,0,0,1,9.17,9.94A18.29,18.29,0,0,1,165,507.5q.72,4.75.72,18.78,0,13.82-.72,18.67a18.45,18.45,0,0,1-2.82,7.79,26.11,26.11,0,0,1-9.17,9.83q-6.4,4.42-16,4.64-9.51-.23-15.86-4.64a26.9,26.9,0,0,1-9.39-9.83c-.59-1.22-1.12-2.38-1.6-3.48a22.52,22.52,0,0,1-1.1-4.31Q108.21,540.09,108.22,526.28Zm12.26,0q0,11.88.88,16.07a13.49,13.49,0,0,0,3.15,6.8A16.55,16.55,0,0,0,137,555a15,15,0,0,0,7.56-1.82,13.36,13.36,0,0,0,4.86-4,14.11,14.11,0,0,0,3.26-6.8q.84-4.19.83-16.07t-.83-16.18a14,14,0,0,0-3.26-6.69,14.35,14.35,0,0,0-4.86-4.14,17.66,17.66,0,0,0-7.56-1.71,16.83,16.83,0,0,0-7.41,1.71,15.4,15.4,0,0,0-5.08,4.14,13.39,13.39,0,0,0-3.15,6.69Q120.48,514.41,120.48,526.28Z" transform="translate(-43.57 -186.01)"/><path class="cls-5" d="M180,486h11.49l36.46,57.23h.22V486h12.2v80.54H228.8l-36.4-57.23h-.22v57.23H180Z" transform="translate(-43.57 -186.01)"/><path class="cls-5" d="M281.22,555q15.69-.21,15.91-11.21.11-9-10.5-10.83-4.86-.66-10.66-1.49-10.38-1.71-15.8-7.68a21.32,21.32,0,0,1-5.57-14.91q0-10.54,7-17,6.79-6.4,19.28-6.52,15,.33,26.13,8.34l-6.8,10.05a36.92,36.92,0,0,0-19.94-6.18,15.24,15.24,0,0,0-9.39,2.81q-3.93,2.94-4,8.73a8.9,8.9,0,0,0,2.7,6.3q2.71,2.86,8.68,4c2.21.36,5.23.79,9.06,1.27q11.31,1.54,16.73,8.12a22.82,22.82,0,0,1,5.36,15q-.61,23.09-28.28,23.42-17.89,0-30.77-11.05l8-9.17A35.33,35.33,0,0,0,281.22,555Z" transform="translate(-43.57 -186.01)"/><path class="cls-5" d="M335.9,496.89h-22V486h56.35v10.88h-22v69.66H335.9Z" transform="translate(-43.57 -186.01)"/><path class="cls-5" d="M378.82,486h31.43q10,0,16.41,5.31,7.68,6,8,17.17-.23,16.41-15.58,22.32l18.67,35.74H423.23l-16.62-34.41H391v34.41H378.82ZM391,521.31h18.45q6.86-.1,10.27-4a12.41,12.41,0,0,0,3.37-8.84q-.11-6.28-4-9.11-3.09-2.49-8.95-2.49H391Z" transform="translate(-43.57 -186.01)"/><path class="cls-5" d="M446.32,486h12.21v51.93q.11,8.22,4.75,12.53A15.76,15.76,0,0,0,474.93,555a16.16,16.16,0,0,0,11.77-4.53q4.53-4.31,4.64-12.53V486h12.21v53.25q-.23,12.71-8.23,20.16-8.07,7.68-20.39,7.79-12.09-.11-20.21-7.79-8.3-7.45-8.4-20.16Z" transform="translate(-43.57 -186.01)"/><path class="cls-5" d="M573.37,544q-2.65,11.22-10.11,17.24a28.79,28.79,0,0,1-18.17,6q-9.51-.23-15.86-4.64a26.9,26.9,0,0,1-9.39-9.83c-.59-1.22-1.12-2.38-1.6-3.48a22.52,22.52,0,0,1-1.1-4.31q-.84-4.86-.83-18.67,0-14,.83-18.78a22.14,22.14,0,0,1,2.7-7.68,27.78,27.78,0,0,1,9.39-9.94q6.36-4.42,15.86-4.53,11.64.11,19,6.9a30.45,30.45,0,0,1,9.28,17H560.44a17.69,17.69,0,0,0-5.41-8.28,15.9,15.9,0,0,0-9.94-3.37,16.83,16.83,0,0,0-7.41,1.71,15.3,15.3,0,0,0-5.08,4.14,13.39,13.39,0,0,0-3.15,6.69q-.88,4.3-.88,16.18t.88,16.07a13.49,13.49,0,0,0,3.15,6.8A16.55,16.55,0,0,0,545.09,555q10.26,0,15.35-11Z" transform="translate(-43.57 -186.01)"/><path class="cls-5" d="M595.63,496.89h-22V486h56.34v10.88h-22v69.66H595.63Z" transform="translate(-43.57 -186.01)"/><path class="cls-5" d="M638.55,486h12.2v80.54h-12.2Z" transform="translate(-43.57 -186.01)"/><path class="cls-5" d="M665,526.28q0-14,.83-18.78a22.13,22.13,0,0,1,2.71-7.68,27.78,27.78,0,0,1,9.39-9.94q6.35-4.42,15.85-4.53,9.62.11,16,4.53a27.13,27.13,0,0,1,9.17,9.94,18.43,18.43,0,0,1,2.81,7.68q.72,4.75.72,18.78,0,13.82-.72,18.67a18.58,18.58,0,0,1-2.81,7.79,26.27,26.27,0,0,1-9.17,9.83q-6.42,4.42-16,4.64-9.51-.23-15.85-4.64a26.9,26.9,0,0,1-9.39-9.83c-.59-1.22-1.13-2.38-1.61-3.48a22.52,22.52,0,0,1-1.1-4.31Q665,540.09,665,526.28Zm12.26,0q0,11.88.89,16.07a13.4,13.4,0,0,0,3.14,6.8A16.6,16.6,0,0,0,693.73,555a15,15,0,0,0,7.57-1.82,13.52,13.52,0,0,0,4.86-4,14.2,14.2,0,0,0,3.26-6.8q.83-4.19.82-16.07t-.82-16.18a14.12,14.12,0,0,0-3.26-6.69,14.54,14.54,0,0,0-4.86-4.14,17.7,17.7,0,0,0-7.57-1.71,16.79,16.79,0,0,0-7.4,1.71,15.34,15.34,0,0,0-5.09,4.14,13.3,13.3,0,0,0-3.14,6.69Q677.21,514.41,677.21,526.28Z" transform="translate(-43.57 -186.01)"/><path class="cls-5" d="M736.7,486h11.49l36.46,57.23h.22V486h12.21v80.54H785.53l-36.4-57.23h-.22v57.23H736.7Z" transform="translate(-43.57 -186.01)"/></svg>